<?xml version="1.0" encoding="UTF-8" standalone="no"?><!-- Generator: Gravit.io --><svg xmlns="http://www.w3.org/2000/svg" xmlns:xlink="http://www.w3.org/1999/xlink" style="isolation:isolate" viewBox="0 0 700 700" width="700pt" height="700pt"><defs><clipPath id="_clipPath_D7Cq19ONjrj8Q5jqmByrG3boAk5zqPh4"><rect width="700" height="700"/></clipPath></defs><g clip-path="url(#_clipPath_D7Cq19ONjrj8Q5jqmByrG3boAk5zqPh4)"><path d=" M 491.08 161.121 L 383.2 161.121 L 383.2 243.82 L 477.2 243.82 L 477.2 283.821 L 383.2 283.821 L 383.2 334.821 L 477.2 334.821 L 477.2 374.821 L 383.2 374.821 L 383.2 425.821 L 436.86 425.821 L 436.86 465.821 L 383.2 465.821 L 383.2 538.88 L 491.06 538.88 C 504.322 538.88 517.04 533.614 526.415 524.235 C 535.794 514.86 541.06 502.141 541.06 488.88 L 541.06 211.159 C 541.072 197.893 535.81 185.171 526.439 175.784 C 517.064 166.402 504.345 161.124 491.08 161.121 L 491.08 161.121 Z " fill="rgb(64,78,255)"/><path d=" M 321.12 157.139 L 208.94 157.139 C 195.678 157.139 182.96 162.405 173.585 171.784 C 164.206 181.159 158.94 193.878 158.94 207.139 L 158.94 484.879 C 158.94 498.141 164.206 510.859 173.585 520.234 C 182.96 529.613 195.679 534.879 208.94 534.879 L 321.12 534.879 L 321.12 589.32 L 361.12 589.32 L 361.12 110.68 L 321.12 110.68 L 321.12 157.139 Z  M 208.94 494.919 C 203.417 494.919 198.94 490.442 198.94 484.919 L 198.94 207.179 C 198.94 201.656 203.417 197.179 208.94 197.179 L 321.12 197.179 L 321.12 239.839 L 239.761 239.839 L 239.761 279.839 L 321.101 279.839 L 321.101 330.839 L 239.761 330.839 L 239.761 370.839 L 321.101 370.839 L 321.101 421.839 L 238.218 421.839 L 238.218 461.839 L 321.116 461.839 L 321.116 494.898 L 208.94 494.919 Z " fill="rgb(64,78,255)"/></g></svg>