<?xml version="1.0" encoding="UTF-8" standalone="no"?><!-- Generator: Gravit.io --><svg xmlns="http://www.w3.org/2000/svg" xmlns:xlink="http://www.w3.org/1999/xlink" style="isolation:isolate" viewBox="0 0 700 700" width="700pt" height="700pt"><defs><clipPath id="_clipPath_RQEQYxXnyirLSVp1feqJ4ybdfGqb9BTf"><rect width="700" height="700"/></clipPath></defs><g clip-path="url(#_clipPath_RQEQYxXnyirLSVp1feqJ4ybdfGqb9BTf)"><path d=" M 133.677 127.312 C 112.591 127.312 95.5 144.403 95.5 165.489 C 95.5 186.57 112.591 203.666 133.677 203.666 L 566.323 203.666 C 587.409 203.666 604.5 186.575 604.5 165.489 C 604.5 144.403 587.409 127.312 566.323 127.312 L 133.677 127.312 Z  M 133.677 311.823 C 112.591 311.823 95.5 328.914 95.5 350 C 95.5 371.081 112.591 388.177 133.677 388.177 L 566.323 388.177 C 587.409 388.177 604.5 371.086 604.5 350 C 604.5 328.914 587.409 311.823 566.323 311.823 L 133.677 311.823 Z  M 133.677 496.334 C 112.591 496.334 95.5 513.425 95.5 534.511 C 95.5 555.592 112.591 572.688 133.677 572.688 L 566.323 572.688 C 587.409 572.688 604.5 555.597 604.5 534.511 C 604.5 513.425 587.409 496.334 566.323 496.334 L 133.677 496.334 Z " fill="rgb(64,78,255)"/></g></svg>