<svg xmlns="http://www.w3.org/2000/svg" xmlns:xlink="http://www.w3.org/1999/xlink" style="isolation:isolate" viewBox="0 0 700 700" width="700pt" height="700pt">
  <defs>
    <clipPath id="_clipPath_iNuVHIjLBS4KC1TXppphOmpYxmkP9kiy">
      <rect width="700" height="700" />
    </clipPath>
  </defs>
  <g clip-path="url(#_clipPath_iNuVHIjLBS4KC1TXppphOmpYxmkP9kiy)">
    <path d=" M 584.009 535.926 L 487.13 439.043 C 511.771 404.324 526.329 362.324 526.329 316.403 C 526.329 200.483 432.251 106.403 316.329 106.403 C 200.409 106.403 106.329 200.485 106.329 316.403 C 106.329 432.323 200.411 526.403 316.329 526.403 C 362.251 526.403 404.809 511.844 439.529 486.641 L 536.408 583.52 C 542.568 590.238 551.529 593.598 559.928 593.598 C 568.326 593.598 577.287 590.238 584.006 583.52 C 596.893 570.082 596.893 548.805 584.01 535.926 L 584.009 535.926 Z  M 173.529 316.405 C 173.529 237.445 237.369 173.605 316.329 173.605 C 395.286 173.609 459.129 237.449 459.129 316.405 C 459.129 395.367 395.289 459.206 316.329 459.206 C 237.372 459.206 173.529 395.366 173.529 316.406 L 173.529 316.405 Z " fill="rgb(64,78,255)" />
  </g>
</svg>